<svg xmlns="http://www.w3.org/2000/svg" id="_&#x421;&#x43B;&#x43E;&#x439;_2" data-name="&#x421;&#x43B;&#x43E;&#x439; 2" viewBox="0 0 89.52 89.59"><defs><style>      .cls-1 {        fill: #f16522;        fill-rule: evenodd;      }    </style></defs><g id="_&#x421;&#x43B;&#x43E;&#x439;_1-2" data-name="&#x421;&#x43B;&#x43E;&#x439; 1"><path class="cls-1" d="m44.41,89.59c-12.43,0-22.95-4.36-31.57-13.09C4.21,67.77-.06,57.17,0,44.71h9.48c.05,9.8,3.44,18.15,10.15,25.05,6.72,6.9,14.97,10.35,24.77,10.35s18.32-3.49,25.25-10.47c6.93-6.98,10.39-15.45,10.39-25.4s-3.49-17.93-10.47-24.64c-6.98-6.71-15.37-10.06-25.17-10.06-5.06,0-9.83,1.09-14.31,3.27-4.47,2.18-8.4,5.1-11.77,8.76h11.14v8.06H3.11V3.46h7.92s0,11.94,0,11.94c4.28-4.77,9.3-8.54,15.05-11.28S37.93,0,44.4,0s12.04,1.17,17.51,3.52c5.47,2.35,10.26,5.53,14.38,9.56,4.12,4.03,7.35,8.73,9.7,14.12,2.35,5.39,3.53,11.18,3.53,17.39s-1.18,12.04-3.53,17.51-5.59,10.23-9.7,14.3c-4.12,4.07-8.91,7.28-14.38,9.64-5.47,2.36-11.3,3.54-17.51,3.54h0Zm15.04-24.85h0s5.75-5.75,5.75-5.75l-16.25-15.83v-22.61h-7.92v26.01l18.42,18.18Z"></path></g></svg>